<svg width="120" height="24" viewBox="0 0 120 24" fill="none" xmlns="http://www.w3.org/2000/svg">
<path d="M10.3503 2.40717C11.1447 1.24803 12.8553 1.24803 13.6497 2.40717L15.83 5.58843C16.0901 5.96789 16.473 6.2461 16.9142 6.37617L20.6135 7.46666C21.9614 7.86399 22.49 9.49092 21.6331 10.6047L19.2813 13.6613C19.0008 14.0259 18.8545 14.476 18.8672 14.9359L18.9732 18.7911C19.0118 20.1958 17.6279 21.2013 16.3039 20.7305L12.6701 19.4383C12.2367 19.2842 11.7633 19.2842 11.3299 19.4383L7.69615 20.7305C6.37212 21.2013 4.98817 20.1958 5.02681 18.7911L5.13284 14.9359C5.14549 14.476 4.99922 14.0259 4.7187 13.6613L2.36688 10.6047C1.50996 9.49092 2.03858 7.86399 3.38648 7.46666L7.08577 6.37617C7.52702 6.2461 7.90994 5.96789 8.17 5.58843L10.3503 2.40717Z" fill="#EE7700"/>
<path d="M34.3503 2.40717C35.1447 1.24803 36.8553 1.24803 37.6497 2.40717L39.83 5.58843C40.0901 5.96789 40.473 6.2461 40.9142 6.37617L44.6135 7.46666C45.9614 7.86399 46.49 9.49092 45.6331 10.6047L43.2813 13.6613C43.0008 14.0259 42.8545 14.476 42.8672 14.9359L42.9732 18.7911C43.0118 20.1958 41.6279 21.2013 40.3039 20.7305L36.6701 19.4383C36.2367 19.2842 35.7633 19.2842 35.3299 19.4383L31.6961 20.7305C30.3721 21.2013 28.9882 20.1958 29.0268 18.7911L29.1328 14.9359C29.1455 14.476 28.9992 14.0259 28.7187 13.6613L26.3669 10.6047C25.51 9.49092 26.0386 7.86399 27.3865 7.46666L31.0858 6.37617C31.527 6.2461 31.9099 5.96789 32.17 5.58843L34.3503 2.40717Z" fill="#EE7700"/>
<path d="M58.3503 2.40717C59.1447 1.24803 60.8553 1.24803 61.6497 2.40717L63.83 5.58843C64.0901 5.96789 64.473 6.2461 64.9142 6.37617L68.6135 7.46666C69.9614 7.86399 70.49 9.49092 69.6331 10.6047L67.2813 13.6613C67.0008 14.0259 66.8545 14.476 66.8672 14.9359L66.9732 18.7911C67.0118 20.1958 65.6279 21.2013 64.3039 20.7305L60.6701 19.4383C60.2367 19.2842 59.7633 19.2842 59.3299 19.4383L55.6961 20.7305C54.3721 21.2013 52.9882 20.1958 53.0268 18.7911L53.1328 14.9359C53.1455 14.476 52.9992 14.0259 52.7187 13.6613L50.3669 10.6047C49.51 9.49092 50.0386 7.86399 51.3865 7.46666L55.0858 6.37617C55.527 6.2461 55.9099 5.96789 56.17 5.58843L58.3503 2.40717Z" fill="#EE7700"/>
<path d="M82.3503 2.40717C83.1447 1.24803 84.8553 1.24803 85.6497 2.40717L87.83 5.58843C88.0901 5.96789 88.473 6.2461 88.9142 6.37617L92.6135 7.46666C93.9614 7.86399 94.49 9.49092 93.6331 10.6047L91.2813 13.6613C91.0008 14.0259 90.8545 14.476 90.8672 14.9359L90.9732 18.7911C91.0118 20.1958 89.6279 21.2013 88.3039 20.7305L84.6701 19.4383C84.2367 19.2842 83.7633 19.2842 83.3299 19.4383L79.6961 20.7305C78.3721 21.2013 76.9882 20.1958 77.0268 18.7911L77.1328 14.9359C77.1455 14.476 76.9992 14.0259 76.7187 13.6613L74.3669 10.6047C73.51 9.49092 74.0386 7.86399 75.3865 7.46666L79.0858 6.37617C79.527 6.2461 79.9099 5.96789 80.17 5.58843L82.3503 2.40717Z" fill="#EE7700"/>
<path d="M106.35 2.40717C107.145 1.24803 108.855 1.24803 109.65 2.40717L111.83 5.58843C112.09 5.96789 112.473 6.2461 112.914 6.37617L116.614 7.46666C117.961 7.86399 118.49 9.49092 117.633 10.6047L115.281 13.6613C115.001 14.0259 114.855 14.476 114.867 14.9359L114.973 18.7911C115.012 20.1958 113.628 21.2013 112.304 20.7305L108.67 19.4383C108.237 19.2842 107.763 19.2842 107.33 19.4383L103.696 20.7305C102.372 21.2013 100.988 20.1958 101.027 18.7911L101.133 14.9359C101.145 14.476 100.999 14.0259 100.719 13.6613L98.3669 10.6047C97.51 9.49092 98.0386 7.86399 99.3865 7.46666L103.086 6.37617C103.527 6.2461 103.91 5.96789 104.17 5.58843L106.35 2.40717Z" fill="#EE7700"/>
</svg>
