<svg width="16" height="16" viewBox="0 0 16 16" fill="none" xmlns="http://www.w3.org/2000/svg">
<path d="M2.71623 1.99603C2.75505 1.3093 2.91909 1.01068 3.38951 0.770869C3.89567 0.512762 4.694 0.632877 5.63339 1.10857C6.038 1.31356 6.0792 1.31773 6.78829 1.22682C7.73083 1.10593 8.94423 1.10636 9.81416 1.22792C10.472 1.31986 10.5152 1.31526 10.9208 1.10985C12.2542 0.434615 13.307 0.478796 13.6882 1.22596C13.8784 1.59891 13.9138 2.56664 13.7662 3.3648C13.6844 3.80729 13.6931 3.86254 13.8902 4.15291C15.2766 6.19606 14.2776 9.5079 11.9018 10.7438C11.72 10.8384 11.5668 10.897 11.442 10.9446C11.0586 11.091 10.9422 11.1355 11.0831 11.8094C11.151 12.1335 11.2327 12.9394 11.2648 13.6003C11.3229 14.795 11.322 14.8033 11.1125 15.047C10.8273 15.3786 10.4162 15.3842 10.1377 15.0603C9.95603 14.8491 9.93829 14.7494 9.93829 13.9345C9.93829 12.7303 9.80629 11.9299 9.49443 11.244C9.12356 10.4278 9.39849 10.1235 10.2466 9.9411C11.4255 9.6875 12.3462 8.95996 12.8594 7.87656C13.3474 6.8467 13.4209 5.4235 12.5388 4.55795C12.2879 4.25983 12.2704 3.9898 12.4496 3.17556C12.5165 2.87123 12.5726 2.47862 12.5743 2.303C12.5768 2.02565 12.5516 1.98377 12.3812 1.98377C12.2734 1.98377 11.8616 2.14058 11.4661 2.3322L10.8349 2.63813C10.7775 2.66594 10.7133 2.67663 10.65 2.66936C9.04496 2.48514 7.51989 2.48229 5.90704 2.67008C5.84347 2.67748 5.77898 2.66679 5.72139 2.63884L5.09053 2.33271C4.69502 2.14074 4.28317 1.98377 4.17541 1.98377C3.92623 1.98377 3.92249 2.16773 4.14961 3.26068C4.28835 3.92818 4.38171 4.07692 3.98063 4.61064C3.37946 5.41067 3.22929 6.40411 3.55167 7.4479C3.95799 8.76323 4.95296 9.65183 6.35178 9.9483C7.19503 10.127 7.41543 10.3602 7.09343 11.3272C6.83996 12.0881 6.67969 12.2842 6.31134 12.2842C5.81573 12.2842 5.50527 11.8549 5.67612 11.4056C5.75137 11.2076 5.72899 11.1865 5.2647 11.0172C3.84741 10.5004 2.76339 9.34223 2.26777 7.81503C1.8847 6.63472 2.05325 5.09842 2.66779 4.16985C2.87703 3.85368 2.88027 3.82687 2.78263 3.22161C2.72738 2.87898 2.6975 2.32752 2.71623 1.99603Z" fill="#EE7700"/>
<path d="M2.22131 10.6304C2.01708 10.3241 1.60317 10.2413 1.29681 10.4456C0.990466 10.6498 0.90768 11.0637 1.11191 11.37C1.26269 11.5962 1.44307 11.782 1.59625 11.9352C1.62449 11.9634 1.65193 11.9907 1.67873 12.0173C1.80704 12.1448 1.92033 12.2573 2.03412 12.3909C2.28579 12.6863 2.53687 13.0842 2.67956 13.7976C2.74312 14.1154 2.97155 14.2866 3.09813 14.3614C3.23539 14.4425 3.38537 14.4903 3.50879 14.5214C3.76127 14.5851 4.06775 14.6182 4.35862 14.6374C4.67793 14.6586 5.02391 14.6655 5.33329 14.6674C5.33351 15.0353 5.6319 15.3336 5.99995 15.3336C6.36814 15.3336 6.66661 15.0351 6.66661 14.6669V14.0002C6.66661 13.632 6.36814 13.3336 5.99995 13.3336C5.9371 13.3336 5.86911 13.3338 5.79709 13.334C5.40585 13.3352 4.89588 13.3368 4.44675 13.307C4.23017 13.2927 4.05213 13.2724 3.92157 13.2475C3.72051 12.4582 3.39571 11.9331 3.04911 11.5262C2.8959 11.3464 2.73725 11.1891 2.6082 11.0611C2.58404 11.0372 2.56092 11.0142 2.53906 10.9924C2.39016 10.8435 2.29276 10.7376 2.22131 10.6304Z" fill="#EE7700"/>
</svg>
