<svg width="16" height="16" viewBox="0 0 16 16" fill="none" xmlns="http://www.w3.org/2000/svg">
<path d="M14.5067 12.2389V7.50465C14.5067 7.04868 14.5063 6.82057 14.4509 6.6084C14.4018 6.42037 14.3211 6.24244 14.212 6.08164C14.0888 5.9002 13.9175 5.74974 13.5744 5.44948L9.47839 1.86548C8.84129 1.30801 8.52273 1.02942 8.16423 0.923397C7.84833 0.829978 7.51162 0.829978 7.19573 0.923397C6.83749 1.02934 6.5194 1.30767 5.88325 1.8643L1.78589 5.44948C1.44274 5.74974 1.27156 5.9002 1.14839 6.08164C1.03924 6.24244 0.957968 6.42037 0.908836 6.6084C0.853394 6.82057 0.853394 7.04868 0.853394 7.50465V12.2389C0.853394 13.0341 0.853394 13.4315 0.983306 13.7452C1.15652 14.1634 1.48855 14.496 1.90673 14.6692C2.22036 14.7991 2.61797 14.7991 3.41317 14.7991C4.20838 14.7991 4.60642 14.7991 4.92006 14.6692C5.33824 14.496 5.67018 14.1634 5.84339 13.7453C5.97331 13.4316 5.97339 13.034 5.97339 12.2388V11.3855C5.97339 10.4429 6.73749 9.67881 7.68006 9.67881C8.62263 9.67881 9.38673 10.4429 9.38673 11.3855V12.2388C9.38673 13.034 9.38673 13.4316 9.51664 13.7453C9.68986 14.1634 10.0219 14.496 10.4401 14.6692C10.7537 14.7991 11.1513 14.7991 11.9465 14.7991C12.7417 14.7991 13.1398 14.7991 13.4534 14.6692C13.8716 14.496 14.2035 14.1634 14.3767 13.7452C14.5066 13.4315 14.5067 13.0341 14.5067 12.2389Z" stroke="white" stroke-width="1.70667" stroke-linecap="round" stroke-linejoin="round"/>
</svg>
