<svg width="16" height="16" viewBox="0 0 16 16" fill="none" xmlns="http://www.w3.org/2000/svg">
<g clip-path="url(#clip0_30_444)">
<path fill-rule="evenodd" clip-rule="evenodd" d="M9.73333 5.01101V5.63563C10.3359 5.26126 11.0316 5.04305 12.0887 5.04305C15.5291 5.04305 15.9696 7.61462 15.9696 9.85486V15.965L11.9916 16V10.1562C11.9916 9.17518 11.6402 8.98899 10.9906 8.98899C10.373 8.98899 9.98959 9.18418 9.98959 10.1562V16L5.95956 15.965V5.011L9.73333 5.01101ZM4.004 5.00441V15.9954H0V5.00442H4.004V5.00441ZM3.003 6.00541H1.001V14.9944H3.003V6.00542V6.00541ZM8.73233 6.01201H6.96056V14.973L8.98859 14.991V10.1562C8.98859 8.26927 10.2428 7.98799 10.9906 7.98799C11.9035 7.98799 12.9926 8.36437 12.9926 10.1562V14.991L14.9686 14.973V9.85486C14.9686 7.07708 14.1888 6.04404 12.0887 6.04404C10.8264 6.04404 10.2799 6.41842 9.74434 6.86888L9.60521 6.98698H8.73233V6.01201ZM2.002 0C3.10611 0 4.004 0.8979 4.004 2.002C4.004 3.10611 3.10611 4.004 2.002 4.004C0.8979 4.004 0 3.10611 0 2.002C0 0.8979 0.8979 0 2.002 0ZM2.002 1.001C1.45045 1.001 1.001 1.45045 1.001 2.002C1.001 2.55355 1.45045 3.003 2.002 3.003C2.55355 3.003 3.003 2.55355 3.003 2.002C3.003 1.45045 2.55355 1.001 2.002 1.001Z" fill="#EE7700"/>
</g>
<defs>
<clipPath id="clip0_30_444">
<rect width="16" height="16" fill="white"/>
</clipPath>
</defs>
</svg>
