<svg width="16" height="16" viewBox="0 0 16 16" fill="none" xmlns="http://www.w3.org/2000/svg">
<path d="M7.87423 4.48443C8.54976 3.27256 8.88756 2.66663 9.39256 2.66663C9.89756 2.66663 10.2353 3.27256 10.9108 4.48443L11.0856 4.79795C11.2776 5.14233 11.3736 5.31451 11.5232 5.42813C11.6729 5.54173 11.8593 5.58391 12.2321 5.66825L12.5714 5.74504C13.8833 6.04185 14.5392 6.19026 14.6952 6.69209C14.8513 7.19389 14.4042 7.71683 13.5098 8.76256L13.2784 9.03316C13.0243 9.33029 12.8972 9.47889 12.8401 9.66276C12.7829 9.84656 12.8021 10.0448 12.8406 10.4413L12.8756 10.8023C13.0108 12.1976 13.0784 12.8953 12.6698 13.2054C12.2612 13.5156 11.6471 13.2328 10.4188 12.6672L10.1011 12.521C9.75203 12.3602 9.57756 12.2799 9.39256 12.2799C9.20756 12.2799 9.03303 12.3602 8.68403 12.521L8.36623 12.6672C7.13796 13.2328 6.52383 13.5156 6.11529 13.2054C5.70673 12.8953 5.77434 12.1976 5.90955 10.8023L5.94453 10.4413C5.98295 10.0448 6.00216 9.84656 5.945 9.66276C5.88783 9.47889 5.76077 9.33029 5.50663 9.03316L5.27526 8.76256C4.38094 7.71683 3.93378 7.19389 4.08983 6.69209C4.24588 6.19026 4.90179 6.04185 6.21363 5.74504L6.55301 5.66825C6.92576 5.58391 7.11216 5.54173 7.26183 5.42813C7.41149 5.31451 7.50749 5.14233 7.69943 4.79795L7.87423 4.48443Z" stroke="#EE7700"/>
<path opacity="0.5" d="M1.39258 10.6667C2.1363 10.0807 3.12426 9.86474 4.05924 10.0838" stroke="#EE7700" stroke-linecap="round"/>
<path opacity="0.5" d="M1.39258 6.99996C2.05924 6.66663 2.25241 6.70696 2.72591 6.66663" stroke="#EE7700" stroke-linecap="round"/>
<path opacity="0.5" d="M1.33337 3.73907L1.47215 3.6578C2.94259 2.79667 4.50025 2.56454 5.96873 2.9877L6.10732 3.02764" stroke="#EE7700" stroke-linecap="round"/>
</svg>
