<?xml version="1.0" encoding="UTF-8"?>
<svg id="Calque_2" data-name="Calque 2" xmlns="http://www.w3.org/2000/svg" viewBox="0 0 104.83 104.83">
  <defs>
    <style>
      .cls-1 {
        fill: none;
        stroke: #2f4554;
        stroke-miterlimit: 10;
        stroke-width: 5.24px;
      }

      .cls-2 {
        fill: #01969a;
      }

      .cls-3 {
        fill: #00707e;
      }

      .cls-4 {
        fill: #5eb030;
      }

      .cls-5 {
        fill: #128c38;
      }
    </style>
  </defs>
  <g id="Picto">
    <g>
      <g>
        <path class="cls-3" d="m74.08,49.11l-3.04,3-29.12,29.06c-.7.7-1.74.86-2.72-.12l-5.67-5.59c-.7-.76-.73-1.82.08-2.62l23.76-23.74h16.71Z"/>
        <path class="cls-2" d="m74.08,49.11l12.97,13c.65.65.7,2-.11,2.8l-5.65,5.64c-.68.68-1.82.63-2.54-.1l-21.38-21.35h16.71Z"/>
        <path class="cls-5" d="m30.79,55.12l2.95-2.93,28.54-28.54c.7-.7,1.89-.8,2.72.12l5.67,5.58c.73.73.73,1.82-.07,2.62l-23.19,23.2-16.63-.04Z"/>
        <path class="cls-4" d="m30.77,55.15l-12.98-12.98c-.65-.65-.7-2,.11-2.8l5.64-5.64c.68-.68,1.82-.63,2.54.1l21.34,21.34h-16.65Z"/>
      </g>
      <circle class="cls-1" cx="52.41" cy="52.41" r="49.79"/>
    </g>
  </g>
</svg>