<svg width="13" height="16" viewBox="0 0 13 16" fill="none" xmlns="http://www.w3.org/2000/svg">
<path d="M10.8534 1.85625C8.37838 -0.61875 4.37338 -0.61875 1.85338 1.85625C0.803622 2.90825 0.15651 4.29539 0.0249251 5.77572C-0.106659 7.25605 0.285636 8.73559 1.13338 9.95625L4.14838 14.2763C4.40145 14.6311 4.73562 14.9203 5.12307 15.1199C5.51053 15.3194 5.94005 15.4236 6.37588 15.4236C6.81171 15.4236 7.24123 15.3194 7.62868 15.1199C8.01614 14.9203 8.35031 14.6311 8.60338 14.2763L11.6184 9.95625C12.4487 8.72644 12.8263 7.24652 12.6868 5.76922C12.5473 4.29192 11.8993 2.90887 10.8534 1.85625ZM10.0884 8.92125L7.07338 13.2413C6.98695 13.3566 6.87486 13.4502 6.74598 13.5146C6.6171 13.5791 6.47498 13.6126 6.33088 13.6126C6.18678 13.6126 6.04465 13.5791 5.91577 13.5146C5.7869 13.4502 5.6748 13.3566 5.58838 13.2413L2.57338 8.92125C1.9623 8.04609 1.68123 6.98264 1.7801 5.91984C1.87896 4.85704 2.35136 3.86368 3.11338 3.11625C4.91338 1.31625 7.79338 1.31625 9.54838 3.11625C10.3096 3.86416 10.7814 4.85741 10.8803 5.91997C10.9791 6.98253 10.6986 8.04577 10.0884 8.92125ZM6.35338 2.89125C5.73037 2.89125 5.12135 3.07599 4.60333 3.42212C4.08532 3.76825 3.68157 4.26021 3.44316 4.8358C3.20474 5.41139 3.14236 6.04474 3.26391 6.65578C3.38545 7.26682 3.68546 7.8281 4.12599 8.26864C4.56653 8.70917 5.1278 9.00918 5.73884 9.13072C6.34988 9.25227 6.98324 9.18989 7.55883 8.95147C8.13442 8.71305 8.62638 8.30931 8.97251 7.7913C9.31863 7.27328 9.50338 6.66426 9.50338 6.04125C9.50601 5.62685 9.42633 5.21606 9.26896 4.83269C9.11158 4.44933 8.87966 4.10103 8.58663 3.808C8.2936 3.51497 7.9453 3.28304 7.56194 3.12567C7.17857 2.9683 6.76778 2.88862 6.35338 2.89125ZM6.35338 7.39125C6.08637 7.39125 5.82537 7.31207 5.60336 7.16373C5.38135 7.01539 5.20832 6.80455 5.10614 6.55787C5.00396 6.31119 4.97723 6.03975 5.02932 5.77788C5.08141 5.516 5.20998 5.27546 5.39878 5.08666C5.58758 4.89786 5.82813 4.76928 6.09001 4.71719C6.35188 4.6651 6.62332 4.69183 6.87 4.79401C7.11668 4.89619 7.32752 5.06922 7.47586 5.29123C7.6242 5.51324 7.70338 5.77425 7.70338 6.04125C7.70668 6.21944 7.67401 6.39647 7.60733 6.56175C7.54066 6.72703 7.44134 6.87717 7.31532 7.00319C7.18929 7.12921 7.03916 7.22853 6.87388 7.29521C6.7086 7.36188 6.53157 7.39455 6.35338 7.39125Z" fill="#FF7700"/>
</svg>
