<svg width="14" height="14" viewBox="0 0 14 14" fill="none" xmlns="http://www.w3.org/2000/svg">
<path d="M4.80021 1.59999H3.36021C2.46412 1.59999 2.01575 1.59999 1.67349 1.77438C1.37243 1.92777 1.12784 2.17237 0.974438 2.47343C0.800049 2.81568 0.800049 3.26406 0.800049 4.16014V10.2401C0.800049 11.1362 0.800049 11.584 0.974438 11.9263C1.12784 12.2274 1.37243 12.4724 1.67349 12.6258C2.01541 12.8 2.46324 12.8 3.35758 12.8H9.44252C10.3369 12.8 10.784 12.8 11.126 12.6258C11.427 12.4724 11.6724 12.2271 11.8258 11.9261C12 11.5841 12 11.1368 12 10.2425V8.79999M12.8 4.79999V0.799988M12.8 0.799988H8.80005M12.8 0.799988L7.20005 6.39999" stroke="white" stroke-width="1.6" stroke-linecap="round" stroke-linejoin="round"/>
</svg>
