<svg width="30" height="24" viewBox="0 0 30 24" fill="none" xmlns="http://www.w3.org/2000/svg">
<path d="M12.7594 1.71125L11.6747 0C4.16953 5.1762 0 11.4654 0 16.6416C0 21.6467 3.58646 24 6.62989 24C10.4659 24 13.1757 20.6624 13.1757 17.155C13.1757 14.2034 11.3411 11.679 8.88077 10.7371C8.17228 10.4797 7.50516 10.2662 7.50516 9.02584C7.50516 7.44327 8.63126 5.09132 12.7594 1.71125ZM29.3121 1.71125L28.2274 0C20.805 5.1762 16.5527 11.4654 16.5527 16.6416C16.5527 21.6467 20.2219 24 23.2653 24C27.1426 24 29.8952 20.6624 29.8952 17.155C29.8952 14.2034 28.0192 11.679 25.4748 10.7371C24.7663 10.4797 24.1406 10.2662 24.1406 9.02584C24.1406 7.44327 25.3081 5.08996 29.3108 1.70989L29.3121 1.71125Z" fill="#EE7700"/>
</svg>
